{
  "accessors": [
    {
      "bufferView": 2,
      "componentType": 5126,
      "count": 42321,
      "max": [
        0.9947502613067627,
        1.2355602979660034,
        0.9947518110275269
      ],
      "min": [
        -0.9947503209114075,
        -0.9993318915367126,
        -0.9947501420974731
      ],
      "type": "VEC3"
    },
    {
      "bufferView": 2,
      "byteOffset": 507852,
      "componentType": 5126,
      "count": 42321,
      "max": [
        1.0,
        1.0,
        1.0
      ],
      "min": [
        -1.0,
        -1.0,
        -1.0
      ],
      "type": "VEC3"
    },
    {
      "bufferView": 1,
      "componentType": 5126,
      "count": 42321,
      "max": [
        1.0000005960464478,
        0.978519082069397
      ],
      "min": [
        9.934108646802997e-09,
        0.0
      ],
      "type": "VEC2"
    },
    {
      "bufferView": 0,
      "componentType": 5125,
      "count": 238800,
      "type": "SCALAR"
    },
    {
      "bufferView": 2,
      "byteOffset": 1015704,
      "componentType": 5126,
      "count": 1904,
      "max": [
        1.0838673114776611,
        0.03743681684136391,
        0.2407410740852356
      ],
      "min": [
        -0.4017393887042999,
        -0.03743681684136391,
        -0.2407410591840744
      ],
      "type": "VEC3"
    },
    {
      "bufferView": 2,
      "byteOffset": 1038552,
      "componentType": 5126,
      "count": 1904,
      "max": [
        1.0,
        1.0,
        1.0
      ],
      "min": [
        -1.0,
        -1.0,
        -1.0
      ],
      "type": "VEC3"
    },
    {
      "bufferView": 1,
      "byteOffset": 338568,
      "componentType": 5126,
      "count": 1904,
      "max": [
        1.0000001192092896,
        1.0000001192092896
      ],
      "min": [
        0.0,
        0.0
      ],
      "type": "VEC2"
    },
    {
      "bufferView": 0,
      "byteOffset": 955200,
      "componentType": 5125,
      "count": 10200,
      "type": "SCALAR"
    },
    {
      "bufferView": 2,
      "byteOffset": 1061400,
      "componentType": 5126,
      "count": 11298,
      "max": [
        0.9800909757614136,
        1.0000001192092896,
        0.9800909757614136
      ],
      "min": [
        -0.9800909757614136,
        -0.2091960608959198,
        -0.9800910949707031
      ],
      "type": "VEC3"
    },
    {
      "bufferView": 2,
      "byteOffset": 1196976,
      "componentType": 5126,
      "count": 11298,
      "max": [
        1.0,
        1.0,
        1.0
      ],
      "min": [
        -1.0,
        -1.0,
        -1.0
      ],
      "type": "VEC3"
    },
    {
      "bufferView": 1,
      "byteOffset": 353800,
      "componentType": 5126,
      "count": 11298,
      "max": [
        1.0000001192092896,
        1.0000001192092896
      ],
      "min": [
        0.0,
        0.01608964055776596
      ],
      "type": "VEC2"
    },
    {
      "bufferView": 0,
      "byteOffset": 996000,
      "componentType": 5125,
      "count": 51456,
      "type": "SCALAR"
    }
  ],
  "asset": {
    "extras": {
      "author": "Alexander (https://sketchfab.com/pravdin)",
      "license": "CC-BY-4.0 (http://creativecommons.org/licenses/by/4.0/)",
      "source": "https://sketchfab.com/3d-models/christmas-tree-ball-561e4b19cdc242be81e0b1f3d24b1825",
      "title": "Christmas Tree Ball"
    },
    "generator": "Sketchfab-14.60.0",
    "version": "2.0"
  },
  "bufferViews": [
    {
      "buffer": 0,
      "byteLength": 1201824,
      "name": "floatBufferViews",
      "target": 34963
    },
    {
      "buffer": 0,
      "byteLength": 444184,
      "byteOffset": 1201824,
      "byteStride": 8,
      "name": "floatBufferViews",
      "target": 34962
    },
    {
      "buffer": 0,
      "byteLength": 1332552,
      "byteOffset": 1646008,
      "byteStride": 12,
      "name": "floatBufferViews",
      "target": 34962
    }
  ],
  "buffers": [
    {
      "byteLength": 2978560,
      "uri": "scene.bin"
    }
  ],
  "extensionsUsed": [
    "KHR_materials_specular"
  ],
  "materials": [
    {
      "doubleSided": true,
      "name": "glass",
      "pbrMetallicRoughness": {
        "baseColorFactor": [
          0.06725368186183119,
          0.4442835887091909,
          1.0,
          1.0
        ],
        "roughnessFactor": 0.3239592263587667
      }
    },
    {
      "doubleSided": true,
      "extensions": {
        "KHR_materials_specular": {
          "specularColorFactor": [
            1.0,
            1.0,
            1.0
          ],
          "specularFactor": 1.0
        }
      },
      "name": "metal",
      "pbrMetallicRoughness": {
        "baseColorFactor": [
          0.6053283849968216,
          0.6053283849968216,
          0.6053283849968216,
          1.0
        ],
        "roughnessFactor": 0.1050729924788258
      }
    }
  ],
  "meshes": [
    {
      "name": "Object_0",
      "primitives": [
        {
          "attributes": {
            "NORMAL": 1,
            "POSITION": 0,
            "TEXCOORD_0": 2
          },
          "indices": 3,
          "material": 0,
          "mode": 4
        }
      ]
    },
    {
      "name": "Object_1",
      "primitives": [
        {
          "attributes": {
            "NORMAL": 5,
            "POSITION": 4,
            "TEXCOORD_0": 6
          },
          "indices": 7,
          "material": 1,
          "mode": 4
        }
      ]
    },
    {
      "name": "Object_2",
      "primitives": [
        {
          "attributes": {
            "NORMAL": 9,
            "POSITION": 8,
            "TEXCOORD_0": 10
          },
          "indices": 11,
          "material": 1,
          "mode": 4
        }
      ]
    }
  ],
  "nodes": [
    {
      "children": [
        1
      ],
      "matrix": [
        1.0,
        0.0,
        0.0,
        0.0,
        0.0,
        2.220446049250313e-16,
        -1.0,
        0.0,
        0.0,
        1.0,
        2.220446049250313e-16,
        0.0,
        0.0,
        0.0,
        0.0,
        1.0
      ],
      "name": "Sketchfab_model"
    },
    {
      "children": [
        2
      ],
      "name": "root"
    },
    {
      "children": [
        3
      ],
      "matrix": [
        1.0,
        0.0,
        0.0,
        0.0,
        0.0,
        2.220446049250313e-16,
        1.0,
        0.0,
        0.0,
        -1.0,
        2.220446049250313e-16,
        0.0,
        0.0,
        0.0,
        0.0,
        1.0
      ],
      "name": "GLTF_SceneRootNode"
    },
    {
      "children": [
        4,
        5,
        7
      ],
      "name": "glas_2"
    },
    {
      "mesh": 0,
      "name": "Object_4"
    },
    {
      "children": [
        6
      ],
      "matrix": [
        0.0,
        0.3842439651489258,
        0.0,
        0.0,
        -0.3842439651489258,
        0.0,
        0.0,
        0.0,
        0.0,
        0.0,
        0.3842439651489258,
        0.0,
        0.0,
        1.2139407396316528,
        0.0,
        1.0
      ],
      "name": "BezierCircle_0"
    },
    {
      "mesh": 1,
      "name": "Object_6"
    },
    {
      "children": [
        8
      ],
      "matrix": [
        0.1993613550270235,
        0.0,
        0.006011957622206456,
        0.0,
        -0.0,
        0.1994519829750061,
        0.0,
        0.0,
        -0.006011957622206456,
        0.0,
        0.1993613550270235,
        0.0,
        0.0,
        1.0553590059280396,
        0.0,
        1.0
      ],
      "name": "Cylinder.005_1"
    },
    {
      "mesh": 2,
      "name": "Object_8"
    }
  ],
  "scene": 0,
  "scenes": [
    {
      "name": "Sketchfab_Scene",
      "nodes": [
        0
      ]
    }
  ]
}
